<?xml version="1.0" standalone="no"?>
<!DOCTYPE svg PUBLIC "-//W3C//DTD SVG 20010904//EN"
 "http://www.w3.org/TR/2001/REC-SVG-20010904/DTD/svg10.dtd">
<svg version="1.0" xmlns="http://www.w3.org/2000/svg"
 width="750.000000pt" height="1000.000000pt" viewBox="0 0 750.000000 1000.000000"
 preserveAspectRatio="xMidYMid meet">

<g transform="translate(0.000000,1000.000000) scale(0.100000,-0.100000)"
fill="#000000" stroke="none">
<path d="M1970 8583 c-465 -810 -797 -1528 -1090 -2363 -256 -728 -456 -1503
-579 -2245 -60 -360 -126 -874 -119 -931 5 -47 44 -40 86 16 18 25 59 77 91
115 31 39 64 81 73 95 57 89 529 573 693 710 154 128 407 306 510 358 157 78
444 62 595 -33 106 -67 133 -111 238 -390 128 -339 242 -741 317 -1118 89
-444 124 -766 132 -1197 4 -255 7 -307 20 -317 30 -23 43 -4 43 62 0 34 9 174
20 311 41 511 52 764 57 1304 6 546 -2 868 -32 1337 l-14 222 -66 233 c-112
391 -297 966 -430 1333 -26 72 -66 186 -90 255 -75 216 -92 245 -123 207 -7
-8 -10 -111 -10 -287 0 -295 -16 -504 -55 -739 l-22 -135 -175 -122 c-96 -68
-222 -151 -279 -186 -57 -35 -156 -97 -220 -139 -171 -111 -402 -249 -515
-308 l-99 -51 7 83 c11 124 53 440 86 644 142 877 398 1779 735 2588 83 198
233 531 300 665 44 88 53 113 46 136 -4 18 -15 30 -27 32 -15 2 -37 -28 -104
-145z"/>
<path d="M5556 8721 c-17 -27 -2 -74 83 -266 464 -1042 774 -2160 916 -3302
25 -199 61 -613 54 -613 -33 0 -689 431 -1003 660 -257 187 -261 191 -270 260
-4 30 -15 109 -24 175 -12 91 -16 213 -17 505 -1 415 -1 413 -52 372 -55 -44
-453 -1121 -659 -1782 -62 -199 -79 -330 -118 -925 -38 -561 -45 -1449 -16
-1945 5 -91 13 -252 16 -358 6 -153 10 -195 21 -199 8 -3 21 1 29 9 12 12 16
57 19 229 11 700 198 1580 491 2320 156 393 173 415 378 484 63 21 93 25 193
25 216 0 307 -32 499 -171 445 -324 793 -680 1077 -1101 91 -136 111 -154 137
-123 25 30 -57 782 -141 1290 -222 1336 -650 2654 -1253 3858 -205 409 -315
607 -337 607 -10 0 -20 -4 -23 -9z"/>
<path d="M3710 7588 c-189 -24 -341 -159 -379 -336 -16 -75 -14 -272 4 -375 9
-48 27 -127 42 -175 14 -48 38 -132 53 -187 45 -164 157 -474 207 -570 74
-144 90 -166 113 -157 47 17 152 177 191 289 10 31 25 66 33 77 58 91 147 372
201 640 14 66 30 144 35 171 6 28 14 93 17 146 5 76 2 106 -12 150 -72 224
-277 357 -505 327z"/>
</g>
</svg>
