<?xml version="1.0" standalone="no"?>
<!DOCTYPE svg PUBLIC "-//W3C//DTD SVG 20010904//EN"
 "http://www.w3.org/TR/2001/REC-SVG-20010904/DTD/svg10.dtd">
<svg version="1.0" xmlns="http://www.w3.org/2000/svg"
 width="500.000000pt" height="500.000000pt" viewBox="0 0 500.000000 500.000000"
 preserveAspectRatio="xMidYMid meet">

<g transform="translate(0.000000,500.000000) scale(0.100000,-0.100000)"
fill="#000000" stroke="none">
<path d="M910 3545 c0 -9 101 -175 106 -175 3 0 -12 32 -31 70 -20 39 -33 76
-29 83 4 7 3 9 -1 4 -5 -4 -17 0 -27 10 -10 9 -18 13 -18 8z"/>
<path d="M1192 2770 c-33 -8 -72 -36 -72 -52 0 -4 19 -8 41 -8 33 0 49 7 80
35 l39 35 -27 -1 c-16 -1 -43 -5 -61 -9z"/>
<path d="M1231 2638 c-55 -50 -101 -95 -101 -99 0 -8 1 -8 118 21 46 12 101
28 123 36 l39 16 -33 59 c-17 32 -35 59 -38 59 -4 0 -52 -41 -108 -92z"/>
<path d="M890 2689 c79 -28 89 -29 138 -19 30 7 51 15 47 18 -6 6 -204 31
-245 31 -14 0 13 -14 60 -30z"/>
<path d="M740 2679 c0 -30 -5 -38 -32 -52 l-33 -17 35 7 c19 4 50 6 68 5 17
-1 32 1 32 6 -1 4 -16 25 -35 47 l-35 40 0 -36z"/>
<path d="M1090 2643 c-44 -13 -60 -23 -83 -55 -16 -22 -27 -42 -25 -43 2 -2
29 3 60 12 42 12 68 27 99 59 49 50 43 53 -51 27z"/>
<path d="M850 2631 c0 -3 12 -15 26 -26 26 -21 26 -22 10 -53 -9 -18 -12 -32
-6 -32 5 0 10 4 10 9 0 5 16 26 35 47 19 20 34 38 33 39 -8 6 -108 21 -108 16z"/>
<path d="M1410 2575 c-22 -12 -23 -14 -7 -19 51 -17 50 -17 38 -2 -7 8 -10 20
-6 26 8 13 6 12 -25 -5z"/>
<path d="M775 2538 c-55 -20 -74 -63 -22 -53 39 8 104 65 72 64 -11 0 -33 -5
-50 -11z"/>
<path d="M986 2459 c-32 -17 -56 -32 -54 -35 10 -10 104 27 116 46 16 26 8 25
-62 -11z"/>
<path d="M1242 2474 c-24 -7 -69 -16 -101 -20 -50 -5 -61 -11 -85 -41 -16 -19
-26 -36 -23 -39 2 -2 29 -2 59 2 43 5 74 18 139 60 86 55 88 63 11 38z"/>
<path d="M870 2456 c-39 -12 -46 -29 -14 -34 18 -3 63 33 53 42 -2 2 -20 -1
-39 -8z"/>
<path d="M1395 2440 l-70 -18 75 4 c41 2 80 4 87 4 7 0 10 7 7 15 -7 18 -11
18 -99 -5z"/>
<path d="M1187 2391 c-31 -19 -70 -31 -110 -36 -59 -6 -63 -9 -117 -67 -30
-34 -56 -65 -58 -69 -4 -11 115 33 183 67 46 23 180 135 159 133 -5 0 -31 -13
-57 -28z"/>
<path d="M783 2382 c12 -18 96 -36 120 -25 19 9 14 11 -33 17 -30 4 -63 10
-74 13 -10 3 -16 1 -13 -5z"/>
</g>
</svg>
